<?xml version="1.0" standalone="no"?>
<!DOCTYPE svg PUBLIC "-//W3C//DTD SVG 20010904//EN"
 "http://www.w3.org/TR/2001/REC-SVG-20010904/DTD/svg10.dtd">
<svg version="1.0" xmlns="http://www.w3.org/2000/svg"
 width="1080.000000pt" height="1080.000000pt" viewBox="0 0 1080.000000 1080.000000"
 preserveAspectRatio="xMidYMid meet">
<metadata>
Created by potrace 1.11, written by Peter Selinger 2001-2013
</metadata>
<g transform="translate(0.000000,1080.000000) scale(0.100000,-0.100000)"
fill="#000000" stroke="none">
<path d="M0 5400 l0 -5400 5400 0 5400 0 0 5400 0 5400 -5400 0 -5400 0 0
-5400z m5554 4041 c82 -40 193 -143 288 -268 86 -113 725 -1060 1008 -1493
106 -162 231 -353 278 -425 130 -199 240 -294 397 -342 53 -16 86 -17 265 -13
340 8 1189 2 1290 -9 247 -28 394 -112 451 -258 27 -71 36 -212 20 -306 -30
-174 -908 -3390 -954 -3498 -56 -127 -96 -188 -187 -279 -113 -114 -237 -177
-410 -210 -38 -8 -852 -11 -2602 -11 -2800 1 -2610 -3 -2774 60 -203 79 -360
261 -437 508 -57 180 -758 2763 -889 3273 -48 187 -50 200 -46 305 3 95 8 118
32 173 51 110 145 180 305 225 74 21 96 21 676 22 621 2 759 7 883 31 134 27
308 116 404 207 80 75 345 454 911 1300 438 655 521 770 625 875 172 170 310
210 466 133z"/>
<path d="M4915 7643 c-264 -389 -481 -710 -483 -715 -2 -4 433 -8 967 -8 534
0 971 2 971 5 0 10 -960 1420 -968 1422 -4 1 -223 -316 -487 -704z"/>
<path d="M5260 5254 c-36 -7 -108 -34 -160 -60 -80 -40 -109 -61 -186 -138
-74 -74 -99 -107 -132 -176 -53 -109 -72 -184 -72 -288 0 -106 20 -187 72
-282 237 -444 835 -514 1155 -136 53 62 108 172 127 256 20 83 20 239 1 315
-8 33 -34 98 -57 145 -34 69 -58 102 -132 175 -74 74 -107 99 -177 133 -140
69 -290 88 -439 56z"/>
</g>
</svg>
